<svg width="580" height="400" xmlns="http://www.w3.org/2000/svg">
 <!-- Created with Method Draw - http://github.com/duopixel/Method-Draw/ -->

 <g>
  <title>background</title>
  <rect fill="#fff" id="canvas_background" height="402" width="582" y="-1" x="-1"/>
  <g display="none" overflow="visible" y="0" x="0" height="100%" width="100%" id="canvasGrid">
   <rect fill="url(#gridpattern)" stroke-width="0" y="0" x="0" height="100%" width="100%"/>
  </g>
 </g>
 <g>
  <title>Layer 1</title>
  <g id="svg_7">
   <path fill="#154995" id="svg_5" d="m356.411169,164.122197l-46.766705,46.766705a27.816689,27.816689 0 0 1 -39.288921,0l-46.766705,-46.766705c-0.077778,0.877778 -0.255556,1.672224 -0.255556,2.544447l0,66.666721a27.811134,27.811134 0 0 0 27.777801,27.777801l77.777842,0a27.811134,27.811134 0 0 0 27.777801,-27.777801l0,-66.666721c0,-0.872223 -0.177778,-1.666668 -0.255556,-2.544447z"/>
   <path fill="#154995" id="svg_6" d="m301.788902,203.03334l50.744486,-50.750042a27.700023,27.700023 0 0 0 -23.644464,-13.394455l-77.777842,0a27.700023,27.700023 0 0 0 -23.644464,13.394455l50.744486,50.750042a16.705569,16.705569 0 0 0 23.577797,0z"/>
  </g>
 </g>
</svg>